<?xml version="1.0" encoding="UTF-8" standalone="no"?>
<!DOCTYPE svg PUBLIC "-//W3C//DTD SVG 1.1//EN"
 "http://www.w3.org/Graphics/SVG/1.1/DTD/svg11.dtd">
<!-- Generated by graphviz version 16.0.0 (20260814.1018)
 -->
<!-- Title: D:/Gartenwasser/src/ValveTimer.cpp Pages: 1 -->
<svg width="244pt" height="152pt"
 viewBox="0.00 0.00 244.00 152.00" xmlns="http://www.w3.org/2000/svg" xmlns:xlink="http://www.w3.org/1999/xlink">

<svg id="main" version="1.1" xmlns="http://www.w3.org/2000/svg" xmlns:xlink="http://www.w3.org/1999/xlink" xml:space="preserve">

<style type="text/css"><![CDATA[
.node, .edge {opacity: 0.7;}
.node.selected, .edge.selected {opacity: 1;}
.edge:hover path { stroke: red; }
.edge:hover polygon { stroke: red; fill: red; }
]]></style>
<script type="application/ecmascript" xlink:href="svg.min.js"/>
<svg id="graph" class="graph">
<g id="graph0" class="graph" transform="scale(1 1) rotate(0) translate(4 148)">
<title>D:/Gartenwasser/src/ValveTimer.cpp</title>
<!-- Node1 -->
<g id="Node000001" class="node">
<title>Node1</title>
<g id="a_Node000001"><a xlink:title=" ">
<polygon fill="#999999" stroke="#666666" points="170.88,-144 64.12,-144 64.12,-112 170.88,-112 170.88,-144"/>
<text xml:space="preserve" text-anchor="start" x="72.12" y="-130.5" font-family="Helvetica,sans-Serif" font-size="10.00">D:/Gartenwasser/src</text>
<text xml:space="preserve" text-anchor="middle" x="117.5" y="-118.5" font-family="Helvetica,sans-Serif" font-size="10.00">/ValveTimer.cpp</text>
</a>
</g>
</g>
<!-- Node2 -->
<g id="Node000002" class="node">
<title>Node2</title>
<g id="a_Node000002"><a xlink:href="_valve_timer_8h.html" target="_top" xlink:title="Countdown der Restlaufzeit je Ventil (V1&#45;V5), Werte aus FileSystem.">
<polygon fill="white" stroke="#666666" points="73,-76 0,-76 0,-56 73,-56 73,-76"/>
<text xml:space="preserve" text-anchor="middle" x="36.5" y="-62.5" font-family="Helvetica,sans-Serif" font-size="10.00">ValveTimer.h</text>
</a>
</g>
</g>
<!-- Node1&#45;&gt;Node2 -->
<g id="edge1_Node000001_Node000002" class="edge">
<title>Node1&#45;&gt;Node2</title>
<g id="a_edge1_Node000001_Node000002"><a xlink:title=" ">
<path fill="none" stroke="#63b8ff" d="M96.64,-111.55C84.92,-102.87 70.31,-92.04 58.42,-83.24"/>
<polygon fill="#63b8ff" stroke="#63b8ff" points="60.54,-80.45 50.42,-77.31 56.37,-86.07 60.54,-80.45"/>
</a>
</g>
</g>
<!-- Node4 -->
<g id="Node000004" class="node">
<title>Node4</title>
<g id="a_Node000004"><a xlink:href="_file_system_8h.html" target="_top" xlink:title="Persistenz der Einstellwerte (config.json: Ventil&#45;Laufzeiten/Automatik/Alias/maxTime; programs....">
<polygon fill="white" stroke="#666666" points="236.38,-76 162.62,-76 162.62,-56 236.38,-56 236.38,-76"/>
<text xml:space="preserve" text-anchor="middle" x="199.5" y="-62.5" font-family="Helvetica,sans-Serif" font-size="10.00">FileSystem.h</text>
</a>
</g>
</g>
<!-- Node1&#45;&gt;Node4 -->
<g id="edge3_Node000001_Node000004" class="edge">
<title>Node1&#45;&gt;Node4</title>
<g id="a_edge3_Node000001_Node000004"><a xlink:title=" ">
<path fill="none" stroke="#63b8ff" d="M138.62,-111.55C150.6,-102.78 165.57,-91.83 177.67,-82.97"/>
<polygon fill="#63b8ff" stroke="#63b8ff" points="179.42,-86.03 185.42,-77.3 175.28,-80.38 179.42,-86.03"/>
</a>
</g>
</g>
<!-- Node6 -->
<g id="Node000006" class="node">
<title>Node6</title>
<g id="a_Node000006"><a xlink:href="_logger_8h.html" target="_top" xlink:title="Einheitliches Log&#45;Format fuer alle Subsysteme.">
<polygon fill="white" stroke="#666666" points="144.25,-76 90.75,-76 90.75,-56 144.25,-56 144.25,-76"/>
<text xml:space="preserve" text-anchor="middle" x="117.5" y="-62.5" font-family="Helvetica,sans-Serif" font-size="10.00">Logger.h</text>
</a>
</g>
</g>
<!-- Node1&#45;&gt;Node6 -->
<g id="edge6_Node000001_Node000006" class="edge">
<title>Node1&#45;&gt;Node6</title>
<g id="a_edge6_Node000001_Node000006"><a xlink:title=" ">
<path fill="none" stroke="#63b8ff" d="M117.5,-111.55C117.5,-104.34 117.5,-95.66 117.5,-87.88"/>
<polygon fill="#63b8ff" stroke="#63b8ff" points="121,-87.92 117.5,-77.92 114,-87.92 121,-87.92"/>
</a>
</g>
</g>
<!-- Node3 -->
<g id="Node000003" class="node">
<title>Node3</title>
<g id="a_Node000003"><a xlink:title=" ">
<polygon fill="#e0e0e0" stroke="#999999" points="140.12,-20 94.88,-20 94.88,0 140.12,0 140.12,-20"/>
<text xml:space="preserve" text-anchor="middle" x="117.5" y="-6.5" font-family="Helvetica,sans-Serif" font-size="10.00">cstdint</text>
</a>
</g>
</g>
<!-- Node2&#45;&gt;Node3 -->
<g id="edge2_Node000002_Node000003" class="edge">
<title>Node2&#45;&gt;Node3</title>
<g id="a_edge2_Node000002_Node000003"><a xlink:title=" ">
<path fill="none" stroke="#63b8ff" d="M50.61,-55.59C62.5,-47.67 79.77,-36.16 93.78,-26.82"/>
<polygon fill="#63b8ff" stroke="#63b8ff" points="95.64,-29.78 102.02,-21.32 91.76,-23.95 95.64,-29.78"/>
</a>
</g>
</g>
<!-- Node4&#45;&gt;Node3 -->
<g id="edge5_Node000004_Node000003" class="edge">
<title>Node4&#45;&gt;Node3</title>
<g id="a_edge5_Node000004_Node000003"><a xlink:title=" ">
<path fill="none" stroke="#63b8ff" d="M185.22,-55.59C173.06,-47.59 155.36,-35.93 141.1,-26.54"/>
<polygon fill="#63b8ff" stroke="#63b8ff" points="143.44,-23.89 133.16,-21.31 139.59,-29.73 143.44,-23.89"/>
</a>
</g>
</g>
<!-- Node5 -->
<g id="Node000005" class="node">
<title>Node5</title>
<g id="a_Node000005"><a xlink:title=" ">
<polygon fill="#e0e0e0" stroke="#999999" points="214.62,-20 166.38,-20 166.38,0 214.62,0 214.62,-20"/>
<text xml:space="preserve" text-anchor="middle" x="190.5" y="-6.5" font-family="Helvetica,sans-Serif" font-size="10.00">cstddef</text>
</a>
</g>
</g>
<!-- Node4&#45;&gt;Node5 -->
<g id="edge4_Node000004_Node000005" class="edge">
<title>Node4&#45;&gt;Node5</title>
<g id="a_edge4_Node000004_Node000005"><a xlink:title=" ">
<path fill="none" stroke="#63b8ff" d="M197.93,-55.59C196.82,-48.93 195.29,-39.75 193.91,-31.44"/>
<polygon fill="#63b8ff" stroke="#63b8ff" points="197.39,-31.08 192.3,-21.79 190.49,-32.23 197.39,-31.08"/>
</a>
</g>
</g>
<!-- Node6&#45;&gt;Node3 -->
<g id="edge8_Node000006_Node000003" class="edge">
<title>Node6&#45;&gt;Node3</title>
<g id="a_edge8_Node000006_Node000003"><a xlink:title=" ">
<path fill="none" stroke="#63b8ff" d="M117.5,-55.59C117.5,-49.01 117.5,-39.96 117.5,-31.73"/>
<polygon fill="#63b8ff" stroke="#63b8ff" points="121,-31.81 117.5,-21.81 114,-31.81 121,-31.81"/>
</a>
</g>
</g>
<!-- Node6&#45;&gt;Node5 -->
<g id="edge7_Node000006_Node000005" class="edge">
<title>Node6&#45;&gt;Node5</title>
<g id="a_edge7_Node000006_Node000005"><a xlink:title=" ">
<path fill="none" stroke="#63b8ff" d="M130.22,-55.59C140.89,-47.7 156.38,-36.24 168.98,-26.92"/>
<polygon fill="#63b8ff" stroke="#63b8ff" points="170.76,-29.96 176.71,-21.2 166.59,-24.33 170.76,-29.96"/>
</a>
</g>
</g>
</g>
</svg>
</svg>

<style type='text/css'>
<![CDATA[
[data-mouse-over-selected='false'] { opacity: 0.7; }
[data-mouse-over-selected='true']  { opacity: 1.0; }
]]>
</style>
</svg>
