<?xml version="1.0" encoding="UTF-8" standalone="no"?>
<!DOCTYPE svg PUBLIC "-//W3C//DTD SVG 1.1//EN"
 "http://www.w3.org/Graphics/SVG/1.1/DTD/svg11.dtd">
<!-- Generated by graphviz version 16.0.0 (20260814.1018)
 -->
<!-- Title: D:/Gartenwasser/src/WebIF.cpp Pages: 1 -->
<!--zoomable 152 -->

<svg id="main" version="1.1" xmlns="http://www.w3.org/2000/svg" xmlns:xlink="http://www.w3.org/1999/xlink" xml:space="preserve">

<style type="text/css"><![CDATA[
.node, .edge {opacity: 0.7;}
.node.selected, .edge.selected {opacity: 1;}
.edge:hover path { stroke: red; }
.edge:hover polygon { stroke: red; fill: red; }
]]></style>

<defs>
  <circle id="rim" cx="0" cy="0" r="7"/>
  <circle id="rim2" cx="0" cy="0" r="3.5"/>
  <g id="zoomPlus">
    <use xlink:href="#rim" fill="#404040"><set attributeName="fill" to="#808080" begin="zoomplus.mouseover" end="zoomplus.mouseout"/></use>
    <path d="M-4,0h8M0,-4v8" fill="none" stroke="white" stroke-width="1.5" pointer-events="none"/>
  </g>
  <g id="zoomMin">
    <use xlink:href="#rim" fill="#404040"><set attributeName="fill" to="#808080" begin="zoomminus.mouseover" end="zoomminus.mouseout"/></use>
    <path d="M-4,0h8" fill="none" stroke="white" stroke-width="1.5" pointer-events="none"/>
  </g>
  <g id="arrowUp" transform="translate(30 24)">
    <use xlink:href="#rim"/>
    <path pointer-events="none" fill="none" stroke="white" stroke-width="1.5" d="M0,-3.0v7 M-2.5,-0.5L0,-3.0L2.5,-0.5"/>
  </g>
  <g id="arrowRight" transform="rotate(90) translate(36 -43)">
    <use xlink:href="#rim"/>
    <path pointer-events="none" fill="none" stroke="white" stroke-width="1.5" d="M0,-3.0v7 M-2.5,-0.5L0,-3.0L2.5,-0.5"/>
  </g>
  <g id="arrowDown" transform="rotate(180) translate(-30 -48)">
    <use xlink:href="#rim"/>
    <path pointer-events="none" fill="none" stroke="white" stroke-width="1.5" d="M0,-3.0v7 M-2.5,-0.5L0,-3.0L2.5,-0.5"/>
  </g>
  <g id="arrowLeft" transform="rotate(270) translate(-36 17)">
    <use xlink:href="#rim"/>
    <path pointer-events="none" fill="none" stroke="white" stroke-width="1.5" d="M0,-3.0v7 M-2.5,-0.5L0,-3.0L2.5,-0.5"/>
  </g>
  <g id="resetDef">
    <use xlink:href="#rim2" fill="#404040"><set attributeName="fill" to="#808080" begin="reset.mouseover" end="reset.mouseout"/></use>
  </g>
</defs>
<script type="application/ecmascript" xlink:href="svg.min.js"/>
<svg id="graph" class="graph" data-view-width="524" data-view-height="152" data-section-id="dynsection-0">
<g id="viewport">
<title>D:/Gartenwasser/src/WebIF.cpp</title>
<!-- Node1 -->
<g id="Node000001" class="node">
<title>Node1</title>
<g id="a_Node000001"><a xlink:title=" ">
<polygon fill="#999999" stroke="#666666" points="327.38,-144 220.62,-144 220.62,-112 327.38,-112 327.38,-144"/>
<text xml:space="preserve" text-anchor="start" x="228.62" y="-130.5" font-family="Helvetica,sans-Serif" font-size="10.00">D:/Gartenwasser/src</text>
<text xml:space="preserve" text-anchor="middle" x="274" y="-118.5" font-family="Helvetica,sans-Serif" font-size="10.00">/WebIF.cpp</text>
</a>
</g>
</g>
<!-- Node2 -->
<g id="Node000002" class="node">
<title>Node2</title>
<g id="a_Node000002"><a xlink:href="_web_i_f_8h.html" target="_top" xlink:title="Async&#45;Webserver (ESPAsyncWebServer), liefert das Web&#45;Interface als statische Dateien aus LittleFS aus...">
<polygon fill="white" stroke="#666666" points="52,-76 0,-76 0,-56 52,-56 52,-76"/>
<text xml:space="preserve" text-anchor="middle" x="26" y="-62.5" font-family="Helvetica,sans-Serif" font-size="10.00">WebIF.h</text>
</a>
</g>
</g>
<!-- Node1&#45;&gt;Node2 -->
<g id="edge1_Node000001_Node000002" class="edge">
<title>Node1&#45;&gt;Node2</title>
<g id="a_edge1_Node000001_Node000002"><a xlink:title=" ">
<path fill="none" stroke="#63b8ff" d="M220.54,-114.46C179.95,-104.88 122.47,-91.19 63.4,-76.57"/>
<polygon fill="#63b8ff" stroke="#63b8ff" points="64.38,-73.2 53.83,-74.19 62.69,-80 64.38,-73.2"/>
</a>
</g>
</g>
<!-- Node3 -->
<g id="Node000003" class="node">
<title>Node3</title>
<g id="a_Node000003"><a xlink:title=" ">
<polygon fill="#e0e0e0" stroke="#999999" points="189.75,-76 70.25,-76 70.25,-56 189.75,-56 189.75,-76"/>
<text xml:space="preserve" text-anchor="middle" x="130" y="-62.5" font-family="Helvetica,sans-Serif" font-size="10.00">ESPAsyncWebServer.h</text>
</a>
</g>
</g>
<!-- Node1&#45;&gt;Node3 -->
<g id="edge2_Node000001_Node000003" class="edge">
<title>Node1&#45;&gt;Node3</title>
<g id="a_edge2_Node000001_Node000003"><a xlink:title=" ">
<path fill="none" stroke="#63b8ff" d="M236.92,-111.55C214.1,-102.04 185.12,-89.97 163.09,-80.79"/>
<polygon fill="#63b8ff" stroke="#63b8ff" points="164.55,-77.61 153.98,-76.99 161.86,-84.07 164.55,-77.61"/>
</a>
</g>
</g>
<!-- Node4 -->
<g id="Node000004" class="node">
<title>Node4</title>
<g id="a_Node000004"><a xlink:title=" ">
<polygon fill="#e0e0e0" stroke="#999999" points="266,-76 208,-76 208,-56 266,-56 266,-76"/>
<text xml:space="preserve" text-anchor="middle" x="237" y="-62.5" font-family="Helvetica,sans-Serif" font-size="10.00">LittleFS.h</text>
</a>
</g>
</g>
<!-- Node1&#45;&gt;Node4 -->
<g id="edge3_Node000001_Node000004" class="edge">
<title>Node1&#45;&gt;Node4</title>
<g id="a_edge3_Node000001_Node000004"><a xlink:title=" ">
<path fill="none" stroke="#63b8ff" d="M264.47,-111.55C259.65,-103.74 253.77,-94.19 248.68,-85.94"/>
<polygon fill="#63b8ff" stroke="#63b8ff" points="251.82,-84.37 243.6,-77.7 245.87,-88.05 251.82,-84.37"/>
</a>
</g>
</g>
<!-- Node5 -->
<g id="Node000005" class="node">
<title>Node5</title>
<g id="a_Node000005"><a xlink:title=" ">
<polygon fill="#e0e0e0" stroke="#999999" points="339.88,-76 284.12,-76 284.12,-56 339.88,-56 339.88,-76"/>
<text xml:space="preserve" text-anchor="middle" x="312" y="-62.5" font-family="Helvetica,sans-Serif" font-size="10.00">Update.h</text>
</a>
</g>
</g>
<!-- Node1&#45;&gt;Node5 -->
<g id="edge4_Node000001_Node000005" class="edge">
<title>Node1&#45;&gt;Node5</title>
<g id="a_edge4_Node000001_Node000005"><a xlink:title=" ">
<path fill="none" stroke="#63b8ff" d="M283.79,-111.55C288.73,-103.74 294.78,-94.19 300.01,-85.94"/>
<polygon fill="#63b8ff" stroke="#63b8ff" points="302.84,-88.01 305.23,-77.69 296.92,-84.26 302.84,-88.01"/>
</a>
</g>
</g>
<!-- Node6 -->
<g id="Node000006" class="node">
<title>Node6</title>
<g id="a_Node000006"><a xlink:href="_logger_8h.html" target="_top" xlink:title="Einheitliches Log&#45;Format fuer alle Subsysteme.">
<polygon fill="white" stroke="#666666" points="411.75,-76 358.25,-76 358.25,-56 411.75,-56 411.75,-76"/>
<text xml:space="preserve" text-anchor="middle" x="385" y="-62.5" font-family="Helvetica,sans-Serif" font-size="10.00">Logger.h</text>
</a>
</g>
</g>
<!-- Node1&#45;&gt;Node6 -->
<g id="edge5_Node000001_Node000006" class="edge">
<title>Node1&#45;&gt;Node6</title>
<g id="a_edge5_Node000001_Node000006"><a xlink:title=" ">
<path fill="none" stroke="#63b8ff" d="M302.59,-111.55C319.61,-102.35 341.09,-90.74 357.85,-81.68"/>
<polygon fill="#63b8ff" stroke="#63b8ff" points="359.13,-84.96 366.26,-77.13 355.8,-78.8 359.13,-84.96"/>
</a>
</g>
</g>
<!-- Node9 -->
<g id="Node000009" class="node">
<title>Node9</title>
<g id="a_Node000009"><a xlink:href="_wi_fi_controller_8h.html" target="_top" xlink:title="WLAN&#45;Verbindungsaufbau und nicht&#45;blockierendes Reconnect&#45;Handling.">
<polygon fill="white" stroke="#666666" points="516.25,-76 429.75,-76 429.75,-56 516.25,-56 516.25,-76"/>
<text xml:space="preserve" text-anchor="middle" x="473" y="-62.5" font-family="Helvetica,sans-Serif" font-size="10.00">WiFiController.h</text>
</a>
</g>
</g>
<!-- Node1&#45;&gt;Node9 -->
<g id="edge8_Node000001_Node000009" class="edge">
<title>Node1&#45;&gt;Node9</title>
<g id="a_edge8_Node000001_Node000009"><a xlink:title=" ">
<path fill="none" stroke="#63b8ff" d="M325.25,-111.55C357.97,-101.68 399.87,-89.05 430.69,-79.76"/>
<polygon fill="#63b8ff" stroke="#63b8ff" points="431.49,-83.17 440.05,-76.93 429.47,-76.47 431.49,-83.17"/>
</a>
</g>
</g>
<!-- Node7 -->
<g id="Node000007" class="node">
<title>Node7</title>
<g id="a_Node000007"><a xlink:title=" ">
<polygon fill="#e0e0e0" stroke="#999999" points="376.12,-20 327.88,-20 327.88,0 376.12,0 376.12,-20"/>
<text xml:space="preserve" text-anchor="middle" x="352" y="-6.5" font-family="Helvetica,sans-Serif" font-size="10.00">cstddef</text>
</a>
</g>
</g>
<!-- Node6&#45;&gt;Node7 -->
<g id="edge6_Node000006_Node000007" class="edge">
<title>Node6&#45;&gt;Node7</title>
<g id="a_edge6_Node000006_Node000007"><a xlink:title=" ">
<path fill="none" stroke="#63b8ff" d="M379.25,-55.59C374.95,-48.55 368.91,-38.67 363.61,-30"/>
<polygon fill="#63b8ff" stroke="#63b8ff" points="366.67,-28.3 358.47,-21.59 360.7,-31.95 366.67,-28.3"/>
</a>
</g>
</g>
<!-- Node8 -->
<g id="Node000008" class="node">
<title>Node8</title>
<g id="a_Node000008"><a xlink:title=" ">
<polygon fill="#e0e0e0" stroke="#999999" points="439.62,-20 394.38,-20 394.38,0 439.62,0 439.62,-20"/>
<text xml:space="preserve" text-anchor="middle" x="417" y="-6.5" font-family="Helvetica,sans-Serif" font-size="10.00">cstdint</text>
</a>
</g>
</g>
<!-- Node6&#45;&gt;Node8 -->
<g id="edge7_Node000006_Node000008" class="edge">
<title>Node6&#45;&gt;Node8</title>
<g id="a_edge7_Node000006_Node000008"><a xlink:title=" ">
<path fill="none" stroke="#63b8ff" d="M390.57,-55.59C394.75,-48.55 400.6,-38.67 405.74,-30"/>
<polygon fill="#63b8ff" stroke="#63b8ff" points="408.63,-31.99 410.72,-21.6 402.61,-28.42 408.63,-31.99"/>
</a>
</g>
</g>
</g>
</svg>

<g id="navigator" transform="translate(0 0)" fill="#404254">
  <rect fill="#f2f5e9" fill-opacity="0.5" stroke="#606060" stroke-width=".5" x="0" y="0" width="60" height="60"/>
  <use id="zoomplus" xlink:href="#zoomPlus" x="17" y="9" data-zoom="in"/>
  <use id="zoomminus" xlink:href="#zoomMin" x="42" y="9" data-zoom="out"/>
  <use id="reset" xlink:href="#resetDef" x="30" y="36" data-reset="true"/>
  <use id="arrowup" xlink:href="#arrowUp" x="0" y="0" data-pan-x="0" data-pan-y="-1"/>
  <use id="arrowright" xlink:href="#arrowRight" x="0" y="0" data-pan-x="1" data-pan-y="0"/>
  <use id="arrowdown" xlink:href="#arrowDown" x="0" y="0" data-pan-x="0" data-pan-y="1"/>
  <use id="arrowleft" xlink:href="#arrowLeft" x="0" y="0" data-pan-x="-1" data-pan-y="0"/>
</g>
<svg viewBox="0 0 15 15" width="100%" height="30px" preserveAspectRatio="xMaxYMin meet">
 <g id="arrow_out" transform="scale(0.3 0.3)">
  <a xlink:href="_web_i_f_8cpp__incl_org.svg" target="_base">
   <rect id="button" ry="5" rx="5" y="6" x="6" height="38" width="38"
        fill="#f2f5e9" fill-opacity="0.5" stroke="#606060" stroke-width="1.0"/>
   <path id="arrow"
     d="M 11.500037,31.436501 C 11.940474,20.09759 22.043105,11.32322 32.158766,21.979434 L 37.068811,17.246167 C 37.068811,17.246167 37.088388,32 37.088388,32 L 22.160133,31.978069 C 22.160133,31.978069 26.997745,27.140456 26.997745,27.140456 C 18.528582,18.264221 13.291696,25.230495 11.500037,31.436501 z"
     style="fill:#404040;"/>
  </a>
 </g>
</svg>

<style type='text/css'>
<![CDATA[
[data-mouse-over-selected='false'] { opacity: 0.7; }
[data-mouse-over-selected='true']  { opacity: 1.0; }
]]>
</style>
</svg>
