<?xml version="1.0" encoding="UTF-8" standalone="no"?>
<!DOCTYPE svg PUBLIC "-//W3C//DTD SVG 1.1//EN"
 "http://www.w3.org/Graphics/SVG/1.1/DTD/svg11.dtd">
<!-- Generated by graphviz version 16.0.0 (20260814.1018)
 -->
<!-- Title: WebIF::begin Pages: 1 -->
<svg width="529pt" height="97pt"
 viewBox="0.00 0.00 529.00 97.00" xmlns="http://www.w3.org/2000/svg" xmlns:xlink="http://www.w3.org/1999/xlink">
<g id="graph0" class="graph" transform="scale(1 1) rotate(0) translate(4 93)">
<title>WebIF::begin</title>
<!-- Node1 -->
<g id="Node000001" class="node">
<title>Node1</title>
<g id="a_Node000001"><a xlink:title=" ">
<polygon fill="#999999" stroke="#666666" points="73.75,-70 0,-70 0,-50 73.75,-50 73.75,-70"/>
<text xml:space="preserve" text-anchor="middle" x="36.88" y="-56.5" font-family="Helvetica,sans-Serif" font-size="10.00">WebIF::begin</text>
</a>
</g>
</g>
<!-- Node2 -->
<g id="Node000002" class="node">
<title>Node2</title>
<g id="a_Node000002"><a xlink:href="class_logger.html#a21705d43d3167e0687454df79dedb6d3" target="_top" xlink:title=" ">
<polygon fill="white" stroke="#666666" points="354.75,-89 290.75,-89 290.75,-69 354.75,-69 354.75,-89"/>
<text xml:space="preserve" text-anchor="middle" x="322.75" y="-75.5" font-family="Helvetica,sans-Serif" font-size="10.00">Logger::log</text>
</a>
</g>
</g>
<!-- Node1&#45;&gt;Node2 -->
<g id="edge1_Node000001_Node000002" class="edge">
<title>Node1&#45;&gt;Node2</title>
<g id="a_edge1_Node000001_Node000002"><a xlink:title=" ">
<path fill="none" stroke="#63b8ff" d="M70.08,-70.41C82.36,-73.88 96.57,-77.29 109.75,-79 167.97,-86.56 235.94,-84.7 278.91,-82.22"/>
<polygon fill="#63b8ff" stroke="#63b8ff" points="279.06,-85.72 288.83,-81.61 278.63,-78.74 279.06,-85.72"/>
</a>
</g>
</g>
<!-- Node4 -->
<g id="Node000004" class="node">
<title>Node4</title>
<g id="a_Node000004"><a xlink:href="class_logger.html#ae3fc9458e28edb18ce6c72033a5a97e4" target="_top" xlink:title=" ">
<polygon fill="white" stroke="#666666" points="215.75,-70 148.75,-70 148.75,-50 215.75,-50 215.75,-70"/>
<text xml:space="preserve" text-anchor="middle" x="182.25" y="-56.5" font-family="Helvetica,sans-Serif" font-size="10.00">Logger::logf</text>
</a>
</g>
</g>
<!-- Node1&#45;&gt;Node4 -->
<g id="edge3_Node000001_Node000004" class="edge">
<title>Node1&#45;&gt;Node4</title>
<g id="a_edge3_Node000001_Node000004"><a xlink:title=" ">
<path fill="none" stroke="#63b8ff" d="M74.05,-60C93.19,-60 116.85,-60 137.07,-60"/>
<polygon fill="#63b8ff" stroke="#63b8ff" points="137,-63.5 147,-60 137,-56.5 137,-63.5"/>
</a>
</g>
</g>
<!-- Node5 -->
<g id="Node000005" class="node">
<title>Node5</title>
<g id="a_Node000005"><a xlink:href="namespace_wi_fi_controller.html#a2622d7c47ada0e6e985e84813934e3bd" target="_top" xlink:title=" ">
<polygon fill="white" stroke="#666666" points="254.75,-32 109.75,-32 109.75,0 254.75,0 254.75,-32"/>
<text xml:space="preserve" text-anchor="start" x="117.75" y="-18.5" font-family="Helvetica,sans-Serif" font-size="10.00">WiFiController::setReconnect</text>
<text xml:space="preserve" text-anchor="middle" x="182.25" y="-6.5" font-family="Helvetica,sans-Serif" font-size="10.00">Callback</text>
</a>
</g>
</g>
<!-- Node1&#45;&gt;Node5 -->
<g id="edge5_Node000001_Node000005" class="edge">
<title>Node1&#45;&gt;Node5</title>
<g id="a_edge5_Node000001_Node000005"><a xlink:title=" ">
<path fill="none" stroke="#63b8ff" d="M71.85,-49.57C85.38,-45.42 101.4,-40.5 116.96,-35.73"/>
<polygon fill="#63b8ff" stroke="#63b8ff" points="117.64,-39.18 126.17,-32.9 115.58,-32.49 117.64,-39.18"/>
</a>
</g>
</g>
<!-- Node3 -->
<g id="Node000003" class="node">
<title>Node3</title>
<g id="a_Node000003"><a xlink:href="class_logger.html#a8c85a0b2b35eb9f57ca874807a04b911" target="_top" xlink:title="Formatiert den aktuellen Zeitstempel (wie am Anfang jeder Logzeile) nach buffer.">
<polygon fill="white" stroke="#666666" points="520.75,-89 390.75,-89 390.75,-69 520.75,-69 520.75,-89"/>
<text xml:space="preserve" text-anchor="middle" x="455.75" y="-75.5" font-family="Helvetica,sans-Serif" font-size="10.00">Logger::currentTimestamp</text>
</a>
</g>
</g>
<!-- Node2&#45;&gt;Node3 -->
<g id="edge2_Node000002_Node000003" class="edge">
<title>Node2&#45;&gt;Node3</title>
<g id="a_edge2_Node000002_Node000003"><a xlink:title=" ">
<path fill="none" stroke="#63b8ff" d="M355.13,-79C362.47,-79 370.6,-79 378.96,-79"/>
<polygon fill="#63b8ff" stroke="#63b8ff" points="378.93,-82.5 388.93,-79 378.93,-75.5 378.93,-82.5"/>
</a>
</g>
</g>
<!-- Node4&#45;&gt;Node2 -->
<g id="edge4_Node000004_Node000002" class="edge">
<title>Node4&#45;&gt;Node2</title>
<g id="a_edge4_Node000004_Node000002"><a xlink:title=" ">
<path fill="none" stroke="#63b8ff" d="M216.07,-64.5C235.02,-67.1 259.05,-70.4 279.4,-73.19"/>
<polygon fill="#63b8ff" stroke="#63b8ff" points="278.71,-76.63 289.09,-74.52 279.66,-69.69 278.71,-76.63"/>
</a>
</g>
</g>
</g>
</svg>
