<?xml version="1.0" encoding="UTF-8" standalone="no"?>
<!DOCTYPE svg PUBLIC "-//W3C//DTD SVG 1.1//EN"
 "http://www.w3.org/Graphics/SVG/1.1/DTD/svg11.dtd">
<!-- Generated by graphviz version 16.0.0 (20260814.1018)
 -->
<!-- Title: HMI::loop Pages: 1 -->
<svg width="162pt" height="84pt"
 viewBox="0.00 0.00 162.00 84.00" xmlns="http://www.w3.org/2000/svg" xmlns:xlink="http://www.w3.org/1999/xlink">
<g id="graph0" class="graph" transform="scale(1 1) rotate(0) translate(4 80)">
<title>HMI::loop</title>
<!-- Node1 -->
<g id="Node000001" class="node">
<title>Node1</title>
<g id="a_Node000001"><a xlink:title="Muss regelmaessig aus loop() aufgerufen werden (LVGL&#45;Verarbeitung).">
<polygon fill="#999999" stroke="#666666" points="154.25,-48 95.5,-48 95.5,-28 154.25,-28 154.25,-48"/>
<text xml:space="preserve" text-anchor="middle" x="124.88" y="-34.5" font-family="Helvetica,sans-Serif" font-size="10.00">HMI::loop</text>
</a>
</g>
</g>
<!-- Node2 -->
<g id="Node000002" class="node">
<title>Node2</title>
<g id="a_Node000002"><a xlink:href="class_h_m_i.html#a70accb733e35e9a48ca783523cb4151e" target="_top" xlink:title=" ">
<polygon fill="white" stroke="#666666" points="59.5,-76 0,-76 0,-56 59.5,-56 59.5,-76"/>
<text xml:space="preserve" text-anchor="middle" x="29.75" y="-62.5" font-family="Helvetica,sans-Serif" font-size="10.00">HMI::HMI</text>
</a>
</g>
</g>
<!-- Node1&#45;&gt;Node2 -->
<g id="edge1_Node000001_Node000002" class="edge">
<title>Node1&#45;&gt;Node2</title>
<g id="a_edge1_Node000001_Node000002"><a xlink:title=" ">
<path fill="none" stroke="#63b8ff" d="M84.27,-49.91C76.07,-52.37 67.58,-54.93 59.84,-57.25"/>
<polygon fill="#63b8ff" stroke="#63b8ff" points="85.16,-53.3 93.73,-47.07 83.14,-46.59 85.16,-53.3"/>
</a>
</g>
</g>
<!-- Node3 -->
<g id="Node000003" class="node">
<title>Node3</title>
<g id="a_Node000003"><a xlink:href="main_8cpp.html#afe461d27b9c48d5921c00d521181f12f" target="_top" xlink:title=" ">
<polygon fill="white" stroke="#666666" points="46.75,-20 12.75,-20 12.75,0 46.75,0 46.75,-20"/>
<text xml:space="preserve" text-anchor="middle" x="29.75" y="-6.5" font-family="Helvetica,sans-Serif" font-size="10.00">loop</text>
</a>
</g>
</g>
<!-- Node1&#45;&gt;Node3 -->
<g id="edge2_Node000001_Node000003" class="edge">
<title>Node1&#45;&gt;Node3</title>
<g id="a_edge2_Node000001_Node000003"><a xlink:title=" ">
<path fill="none" stroke="#63b8ff" d="M84.42,-26.14C71.29,-22.19 57.39,-18.01 47.03,-14.89"/>
<polygon fill="#63b8ff" stroke="#63b8ff" points="83.14,-29.41 93.73,-28.93 85.16,-22.7 83.14,-29.41"/>
</a>
</g>
</g>
<!-- Node3&#45;&gt;Node3 -->
<g id="edge3_Node000003_Node000003" class="edge">
<title>Node3&#45;&gt;Node3</title>
<g id="a_edge3_Node000003_Node000003"><a xlink:title=" ">
<path fill="none" stroke="#63b8ff" d="M46.56,-31.44C44.4,-35.3 38.79,-38 29.75,-38 13.21,-38 8.18,-28.98 14.64,-20.34"/>
<polygon fill="#63b8ff" stroke="#63b8ff" points="50.07,-31.19 45.09,-21.83 43.15,-32.25 50.07,-31.19"/>
</a>
</g>
</g>
</g>
</svg>
