<?xml version="1.0" encoding="UTF-8" standalone="no"?>
<!DOCTYPE svg PUBLIC "-//W3C//DTD SVG 1.1//EN"
 "http://www.w3.org/Graphics/SVG/1.1/DTD/svg11.dtd">
<!-- Generated by graphviz version 16.0.0 (20260814.1018)
 -->
<!-- Title: Diagnostics::Diagnostics Pages: 1 -->
<svg width="663pt" height="180pt"
 viewBox="0.00 0.00 663.00 180.00" xmlns="http://www.w3.org/2000/svg" xmlns:xlink="http://www.w3.org/1999/xlink">
<g id="graph0" class="graph" transform="scale(1 1) rotate(0) translate(4 176)">
<title>Diagnostics::Diagnostics</title>
<!-- Node1 -->
<g id="Node000001" class="node">
<title>Node1</title>
<g id="a_Node000001"><a xlink:title=" ">
<polygon fill="#999999" stroke="#666666" points="125.5,-96 0,-96 0,-76 125.5,-76 125.5,-96"/>
<text xml:space="preserve" text-anchor="middle" x="62.75" y="-82.5" font-family="Helvetica,sans-Serif" font-size="10.00">Diagnostics::Diagnostics</text>
</a>
</g>
</g>
<!-- Node2 -->
<g id="Node000002" class="node">
<title>Node2</title>
<g id="a_Node000002"><a xlink:href="class_diagnostics.html#a3004aeac1d2170fe78a9f8043eefbeae" target="_top" xlink:title="Initialisiert den Zustand und registriert den Logger::ErrorCallback.">
<polygon fill="white" stroke="#666666" points="287.38,-172 190.38,-172 190.38,-152 287.38,-152 287.38,-172"/>
<text xml:space="preserve" text-anchor="middle" x="238.88" y="-158.5" font-family="Helvetica,sans-Serif" font-size="10.00">Diagnostics::begin</text>
</a>
</g>
</g>
<!-- Node1&#45;&gt;Node2 -->
<g id="edge1_Node000001_Node000002" class="edge">
<title>Node1&#45;&gt;Node2</title>
<g id="a_edge1_Node000001_Node000002"><a xlink:title=" ">
<path fill="none" stroke="#63b8ff" d="M78.63,-96.5C97.22,-109.17 130.38,-130.36 161.5,-143 167.12,-145.28 173.08,-147.34 179.11,-149.19"/>
<polygon fill="#63b8ff" stroke="#63b8ff" points="177.91,-152.49 188.49,-151.88 179.84,-145.76 177.91,-152.49"/>
</a>
</g>
</g>
<!-- Node4 -->
<g id="Node000004" class="node">
<title>Node4</title>
<g id="a_Node000004"><a xlink:href="class_diagnostics.html#a61eb935f65df2ea332ac669ea6bed498" target="_top" xlink:title=" ">
<polygon fill="white" stroke="#666666" points="309.88,-134 167.88,-134 167.88,-114 309.88,-114 309.88,-134"/>
<text xml:space="preserve" text-anchor="middle" x="238.88" y="-120.5" font-family="Helvetica,sans-Serif" font-size="10.00">Diagnostics::checkI2cStatus</text>
</a>
</g>
</g>
<!-- Node1&#45;&gt;Node4 -->
<g id="edge3_Node000001_Node000004" class="edge">
<title>Node1&#45;&gt;Node4</title>
<g id="a_edge3_Node000001_Node000004"><a xlink:title=" ">
<path fill="none" stroke="#63b8ff" d="M111.79,-96.48C132.54,-101.01 157.01,-106.35 178.84,-111.12"/>
<polygon fill="#63b8ff" stroke="#63b8ff" points="178,-114.51 188.51,-113.23 179.49,-107.68 178,-114.51"/>
</a>
</g>
</g>
<!-- Node8 -->
<g id="Node000008" class="node">
<title>Node8</title>
<g id="a_Node000008"><a xlink:href="class_diagnostics.html#abafa16aed5a46e3b9e0f9c39109a4519" target="_top" xlink:title=" ">
<polygon fill="white" stroke="#666666" points="316.25,-96 161.5,-96 161.5,-76 316.25,-76 316.25,-96"/>
<text xml:space="preserve" text-anchor="middle" x="238.88" y="-82.5" font-family="Helvetica,sans-Serif" font-size="10.00">Diagnostics::consumeNewError</text>
</a>
</g>
</g>
<!-- Node1&#45;&gt;Node8 -->
<g id="edge7_Node000001_Node000008" class="edge">
<title>Node1&#45;&gt;Node8</title>
<g id="a_edge7_Node000001_Node000008"><a xlink:title=" ">
<path fill="none" stroke="#63b8ff" d="M125.63,-86C133.47,-86 141.61,-86 149.76,-86"/>
<polygon fill="#63b8ff" stroke="#63b8ff" points="149.75,-89.5 159.75,-86 149.75,-82.5 149.75,-89.5"/>
</a>
</g>
</g>
<!-- Node9 -->
<g id="Node000009" class="node">
<title>Node9</title>
<g id="a_Node000009"><a xlink:href="class_diagnostics.html#a5377b98576fee15844a969a53ab947e2" target="_top" xlink:title="Zuletzt aufgetretene Fehlermeldung inkl. Zeitstempel, leer wenn noch keine.">
<polygon fill="white" stroke="#666666" points="302.38,-58 175.38,-58 175.38,-38 302.38,-38 302.38,-58"/>
<text xml:space="preserve" text-anchor="middle" x="238.88" y="-44.5" font-family="Helvetica,sans-Serif" font-size="10.00">Diagnostics::getLastError</text>
</a>
</g>
</g>
<!-- Node1&#45;&gt;Node9 -->
<g id="edge8_Node000001_Node000009" class="edge">
<title>Node1&#45;&gt;Node9</title>
<g id="a_edge8_Node000001_Node000009"><a xlink:title=" ">
<path fill="none" stroke="#63b8ff" d="M111.79,-75.52C132.54,-70.99 157.01,-65.65 178.84,-60.88"/>
<polygon fill="#63b8ff" stroke="#63b8ff" points="179.49,-64.32 188.51,-58.77 178,-57.49 179.49,-64.32"/>
</a>
</g>
</g>
<!-- Node10 -->
<g id="Node000010" class="node">
<title>Node10</title>
<g id="a_Node000010"><a xlink:href="class_diagnostics.html#a87b924c728b1e8bb335c361095a60754" target="_top" xlink:title="true = i2cStatus &quot;ok&quot;, false = &quot;error&quot;.">
<polygon fill="white" stroke="#666666" points="292.62,-20 185.12,-20 185.12,0 292.62,0 292.62,-20"/>
<text xml:space="preserve" text-anchor="middle" x="238.88" y="-6.5" font-family="Helvetica,sans-Serif" font-size="10.00">Diagnostics::isI2cOk</text>
</a>
</g>
</g>
<!-- Node1&#45;&gt;Node10 -->
<g id="edge9_Node000001_Node000010" class="edge">
<title>Node1&#45;&gt;Node10</title>
<g id="a_edge9_Node000001_Node000010"><a xlink:title=" ">
<path fill="none" stroke="#63b8ff" d="M78.63,-75.5C97.22,-62.83 130.38,-41.64 161.5,-29 166.18,-27.1 171.11,-25.35 176.11,-23.75"/>
<polygon fill="#63b8ff" stroke="#63b8ff" points="177.07,-27.11 185.65,-20.91 175.07,-20.4 177.07,-27.11"/>
</a>
</g>
</g>
<!-- Node3 -->
<g id="Node000003" class="node">
<title>Node3</title>
<g id="a_Node000003"><a xlink:href="class_logger.html#a8e88dd6ab1fba23da493b2d2214f04a8" target="_top" xlink:title=" ">
<polygon fill="white" stroke="#666666" points="482.62,-172 358.62,-172 358.62,-152 482.62,-152 482.62,-172"/>
<text xml:space="preserve" text-anchor="middle" x="420.62" y="-158.5" font-family="Helvetica,sans-Serif" font-size="10.00">Logger::setErrorCallback</text>
</a>
</g>
</g>
<!-- Node2&#45;&gt;Node3 -->
<g id="edge2_Node000002_Node000003" class="edge">
<title>Node2&#45;&gt;Node3</title>
<g id="a_edge2_Node000002_Node000003"><a xlink:title=" ">
<path fill="none" stroke="#63b8ff" d="M287.57,-162C305.74,-162 326.88,-162 346.86,-162"/>
<polygon fill="#63b8ff" stroke="#63b8ff" points="346.61,-165.5 356.61,-162 346.61,-158.5 346.61,-165.5"/>
</a>
</g>
</g>
<!-- Node5 -->
<g id="Node000005" class="node">
<title>Node5</title>
<g id="a_Node000005"><a xlink:href="class_i2_c.html#a4af540f66794fd0f04855e6cf79238f3" target="_top" xlink:title="Prueft, ob der MCP23017 aktuell auf dem I2C&#45;Bus antwortet.">
<polygon fill="white" stroke="#666666" points="489,-134 352.25,-134 352.25,-114 489,-114 489,-134"/>
<text xml:space="preserve" text-anchor="middle" x="420.62" y="-120.5" font-family="Helvetica,sans-Serif" font-size="10.00">I2C::isMcp23017Reachable</text>
</a>
</g>
</g>
<!-- Node4&#45;&gt;Node5 -->
<g id="edge4_Node000004_Node000005" class="edge">
<title>Node4&#45;&gt;Node5</title>
<g id="a_edge4_Node000004_Node000005"><a xlink:title=" ">
<path fill="none" stroke="#63b8ff" d="M310.14,-124C320.09,-124 330.37,-124 340.47,-124"/>
<polygon fill="#63b8ff" stroke="#63b8ff" points="340.25,-127.5 350.25,-124 340.25,-120.5 340.25,-127.5"/>
</a>
</g>
</g>
<!-- Node6 -->
<g id="Node000006" class="node">
<title>Node6</title>
<g id="a_Node000006"><a xlink:href="class_logger.html#a21705d43d3167e0687454df79dedb6d3" target="_top" xlink:title=" ">
<polygon fill="white" stroke="#666666" points="452.62,-96 388.62,-96 388.62,-76 452.62,-76 452.62,-96"/>
<text xml:space="preserve" text-anchor="middle" x="420.62" y="-82.5" font-family="Helvetica,sans-Serif" font-size="10.00">Logger::log</text>
</a>
</g>
</g>
<!-- Node4&#45;&gt;Node6 -->
<g id="edge5_Node000004_Node000006" class="edge">
<title>Node4&#45;&gt;Node6</title>
<g id="a_edge5_Node000004_Node000006"><a xlink:title=" ">
<path fill="none" stroke="#63b8ff" d="M289.47,-113.52C316.99,-107.7 350.86,-100.54 377.15,-94.98"/>
<polygon fill="#63b8ff" stroke="#63b8ff" points="377.74,-98.43 386.8,-92.94 376.29,-91.58 377.74,-98.43"/>
</a>
</g>
</g>
<!-- Node7 -->
<g id="Node000007" class="node">
<title>Node7</title>
<g id="a_Node000007"><a xlink:href="class_logger.html#a8c85a0b2b35eb9f57ca874807a04b911" target="_top" xlink:title="Formatiert den aktuellen Zeitstempel (wie am Anfang jeder Logzeile) nach buffer.">
<polygon fill="white" stroke="#666666" points="655,-96 525,-96 525,-76 655,-76 655,-96"/>
<text xml:space="preserve" text-anchor="middle" x="590" y="-82.5" font-family="Helvetica,sans-Serif" font-size="10.00">Logger::currentTimestamp</text>
</a>
</g>
</g>
<!-- Node6&#45;&gt;Node7 -->
<g id="edge6_Node000006_Node000007" class="edge">
<title>Node6&#45;&gt;Node7</title>
<g id="a_edge6_Node000006_Node000007"><a xlink:title=" ">
<path fill="none" stroke="#63b8ff" d="M453.11,-86C470.2,-86 492.14,-86 513.38,-86"/>
<polygon fill="#63b8ff" stroke="#63b8ff" points="513.22,-89.5 523.22,-86 513.22,-82.5 513.22,-89.5"/>
</a>
</g>
</g>
</g>
</svg>
