<?xml version="1.0" encoding="UTF-8" standalone="no"?>
<!DOCTYPE svg PUBLIC "-//W3C//DTD SVG 1.1//EN"
 "http://www.w3.org/Graphics/SVG/1.1/DTD/svg11.dtd">
<!-- Generated by graphviz version 16.0.0 (20260814.1018)
 -->
<!-- Title: FileSystem::setSchedule Pages: 1 -->
<svg width="503pt" height="28pt"
 viewBox="0.00 0.00 503.00 28.00" xmlns="http://www.w3.org/2000/svg" xmlns:xlink="http://www.w3.org/1999/xlink">
<g id="graph0" class="graph" transform="scale(1 1) rotate(0) translate(4 24)">
<title>FileSystem::setSchedule</title>
<!-- Node1 -->
<g id="Node000001" class="node">
<title>Node1</title>
<g id="a_Node000001"><a xlink:title=" ">
<polygon fill="#999999" stroke="#666666" points="125.5,-20 0,-20 0,0 125.5,0 125.5,-20"/>
<text xml:space="preserve" text-anchor="middle" x="62.75" y="-6.5" font-family="Helvetica,sans-Serif" font-size="10.00">FileSystem::setSchedule</text>
</a>
</g>
</g>
<!-- Node2 -->
<g id="Node000002" class="node">
<title>Node2</title>
<g id="a_Node000002"><a xlink:href="class_logger.html#ae3fc9458e28edb18ce6c72033a5a97e4" target="_top" xlink:title=" ">
<polygon fill="white" stroke="#666666" points="228.5,-20 161.5,-20 161.5,0 228.5,0 228.5,-20"/>
<text xml:space="preserve" text-anchor="middle" x="195" y="-6.5" font-family="Helvetica,sans-Serif" font-size="10.00">Logger::logf</text>
</a>
</g>
</g>
<!-- Node1&#45;&gt;Node2 -->
<g id="edge1_Node000001_Node000002" class="edge">
<title>Node1&#45;&gt;Node2</title>
<g id="a_edge1_Node000001_Node000002"><a xlink:title=" ">
<path fill="none" stroke="#63b8ff" d="M125.82,-10C133.92,-10 142.07,-10 149.79,-10"/>
<polygon fill="#63b8ff" stroke="#63b8ff" points="149.59,-13.5 159.59,-10 149.59,-6.5 149.59,-13.5"/>
</a>
</g>
</g>
<!-- Node3 -->
<g id="Node000003" class="node">
<title>Node3</title>
<g id="a_Node000003"><a xlink:href="class_logger.html#a21705d43d3167e0687454df79dedb6d3" target="_top" xlink:title=" ">
<polygon fill="white" stroke="#666666" points="328.5,-20 264.5,-20 264.5,0 328.5,0 328.5,-20"/>
<text xml:space="preserve" text-anchor="middle" x="296.5" y="-6.5" font-family="Helvetica,sans-Serif" font-size="10.00">Logger::log</text>
</a>
</g>
</g>
<!-- Node2&#45;&gt;Node3 -->
<g id="edge2_Node000002_Node000003" class="edge">
<title>Node2&#45;&gt;Node3</title>
<g id="a_edge2_Node000002_Node000003"><a xlink:title=" ">
<path fill="none" stroke="#63b8ff" d="M228.86,-10C236.46,-10 244.67,-10 252.63,-10"/>
<polygon fill="#63b8ff" stroke="#63b8ff" points="252.52,-13.5 262.52,-10 252.52,-6.5 252.52,-13.5"/>
</a>
</g>
</g>
<!-- Node4 -->
<g id="Node000004" class="node">
<title>Node4</title>
<g id="a_Node000004"><a xlink:href="class_logger.html#a8c85a0b2b35eb9f57ca874807a04b911" target="_top" xlink:title="Formatiert den aktuellen Zeitstempel (wie am Anfang jeder Logzeile) nach buffer.">
<polygon fill="white" stroke="#666666" points="494.5,-20 364.5,-20 364.5,0 494.5,0 494.5,-20"/>
<text xml:space="preserve" text-anchor="middle" x="429.5" y="-6.5" font-family="Helvetica,sans-Serif" font-size="10.00">Logger::currentTimestamp</text>
</a>
</g>
</g>
<!-- Node3&#45;&gt;Node4 -->
<g id="edge3_Node000003_Node000004" class="edge">
<title>Node3&#45;&gt;Node4</title>
<g id="a_edge3_Node000003_Node000004"><a xlink:title=" ">
<path fill="none" stroke="#63b8ff" d="M328.88,-10C336.22,-10 344.35,-10 352.71,-10"/>
<polygon fill="#63b8ff" stroke="#63b8ff" points="352.68,-13.5 362.68,-10 352.68,-6.5 352.68,-13.5"/>
</a>
</g>
</g>
</g>
</svg>
