<?xml version="1.0" encoding="UTF-8" standalone="no"?>
<!DOCTYPE svg PUBLIC "-//W3C//DTD SVG 1.1//EN"
 "http://www.w3.org/Graphics/SVG/1.1/DTD/svg11.dtd">
<!-- Generated by graphviz version 16.0.0 (20260814.1018)
 -->
<!-- Title: Logger::Logger Pages: 1 -->
<!--zoomable 249 -->

<svg id="main" version="1.1" xmlns="http://www.w3.org/2000/svg" xmlns:xlink="http://www.w3.org/1999/xlink" xml:space="preserve">

<style type="text/css"><![CDATA[
.node, .edge {opacity: 0.7;}
.node.selected, .edge.selected {opacity: 1;}
.edge:hover path { stroke: red; }
.edge:hover polygon { stroke: red; fill: red; }
]]></style>

<defs>
  <circle id="rim" cx="0" cy="0" r="7"/>
  <circle id="rim2" cx="0" cy="0" r="3.5"/>
  <g id="zoomPlus">
    <use xlink:href="#rim" fill="#404040"><set attributeName="fill" to="#808080" begin="zoomplus.mouseover" end="zoomplus.mouseout"/></use>
    <path d="M-4,0h8M0,-4v8" fill="none" stroke="white" stroke-width="1.5" pointer-events="none"/>
  </g>
  <g id="zoomMin">
    <use xlink:href="#rim" fill="#404040"><set attributeName="fill" to="#808080" begin="zoomminus.mouseover" end="zoomminus.mouseout"/></use>
    <path d="M-4,0h8" fill="none" stroke="white" stroke-width="1.5" pointer-events="none"/>
  </g>
  <g id="arrowUp" transform="translate(30 24)">
    <use xlink:href="#rim"/>
    <path pointer-events="none" fill="none" stroke="white" stroke-width="1.5" d="M0,-3.0v7 M-2.5,-0.5L0,-3.0L2.5,-0.5"/>
  </g>
  <g id="arrowRight" transform="rotate(90) translate(36 -43)">
    <use xlink:href="#rim"/>
    <path pointer-events="none" fill="none" stroke="white" stroke-width="1.5" d="M0,-3.0v7 M-2.5,-0.5L0,-3.0L2.5,-0.5"/>
  </g>
  <g id="arrowDown" transform="rotate(180) translate(-30 -48)">
    <use xlink:href="#rim"/>
    <path pointer-events="none" fill="none" stroke="white" stroke-width="1.5" d="M0,-3.0v7 M-2.5,-0.5L0,-3.0L2.5,-0.5"/>
  </g>
  <g id="arrowLeft" transform="rotate(270) translate(-36 17)">
    <use xlink:href="#rim"/>
    <path pointer-events="none" fill="none" stroke="white" stroke-width="1.5" d="M0,-3.0v7 M-2.5,-0.5L0,-3.0L2.5,-0.5"/>
  </g>
  <g id="resetDef">
    <use xlink:href="#rim2" fill="#404040"><set attributeName="fill" to="#808080" begin="reset.mouseover" end="reset.mouseout"/></use>
  </g>
</defs>
<script type="application/ecmascript" xlink:href="svg.min.js"/>
<svg id="graph" class="graph" data-view-width="527" data-view-height="249" data-section-id="dynsection-0">
<g id="viewport">
<title>Logger::Logger</title>
<!-- Node1 -->
<g id="Node000001" class="node">
<title>Node1</title>
<g id="a_Node000001"><a xlink:title=" ">
<polygon fill="#999999" stroke="#666666" points="80.5,-134 0,-134 0,-114 80.5,-114 80.5,-134"/>
<text xml:space="preserve" text-anchor="middle" x="40.25" y="-120.5" font-family="Helvetica,sans-Serif" font-size="10.00">Logger::Logger</text>
</a>
</g>
</g>
<!-- Node2 -->
<g id="Node000002" class="node">
<title>Node2</title>
<g id="a_Node000002"><a xlink:href="class_logger.html#a8c85a0b2b35eb9f57ca874807a04b911" target="_top" xlink:title="Formatiert den aktuellen Zeitstempel (wie am Anfang jeder Logzeile) nach buffer.">
<polygon fill="white" stroke="#666666" points="518.5,-191 388.5,-191 388.5,-171 518.5,-171 518.5,-191"/>
<text xml:space="preserve" text-anchor="middle" x="453.5" y="-177.5" font-family="Helvetica,sans-Serif" font-size="10.00">Logger::currentTimestamp</text>
</a>
</g>
</g>
<!-- Node1&#45;&gt;Node2 -->
<g id="edge1_Node000001_Node000002" class="edge">
<title>Node1&#45;&gt;Node2</title>
<g id="a_edge1_Node000001_Node000002"><a xlink:title=" ">
<path fill="none" stroke="#63b8ff" d="M45.6,-134.25C54.99,-154.9 79.37,-201.05 116.5,-219 218.46,-268.31 357.56,-221.72 419.92,-195.77"/>
<polygon fill="#63b8ff" stroke="#63b8ff" points="421.08,-199.08 428.91,-191.93 418.34,-192.64 421.08,-199.08"/>
</a>
</g>
</g>
<!-- Node3 -->
<g id="Node000003" class="node">
<title>Node3</title>
<g id="a_Node000003"><a xlink:href="class_logger.html#a29d0f74ae8136a5f87849a9c3aba87f1" target="_top" xlink:title="Schaltet den Zeitstempel von boot&#45;relativer Zeit auf Echtzeit um (nach erfolgreicher NTP&#45;Synchronisie...">
<polygon fill="white" stroke="#666666" points="245.38,-210 123.62,-210 123.62,-190 245.38,-190 245.38,-210"/>
<text xml:space="preserve" text-anchor="middle" x="184.5" y="-196.5" font-family="Helvetica,sans-Serif" font-size="10.00">Logger::enableRealTime</text>
</a>
</g>
</g>
<!-- Node1&#45;&gt;Node3 -->
<g id="edge2_Node000001_Node000003" class="edge">
<title>Node1&#45;&gt;Node3</title>
<g id="a_edge2_Node000001_Node000003"><a xlink:title=" ">
<path fill="none" stroke="#63b8ff" d="M52.09,-134.32C65.97,-147.02 91.27,-168.43 116.5,-181 119.96,-182.72 123.6,-184.31 127.32,-185.78"/>
<polygon fill="#63b8ff" stroke="#63b8ff" points="125.92,-188.99 136.52,-189.06 128.28,-182.4 125.92,-188.99"/>
</a>
</g>
</g>
<!-- Node4 -->
<g id="Node000004" class="node">
<title>Node4</title>
<g id="a_Node000004"><a xlink:href="class_logger.html#a6fa26119de2d3513c679785f96648cb1" target="_top" xlink:title=" ">
<polygon fill="white" stroke="#666666" points="252.5,-172 116.5,-172 116.5,-152 252.5,-152 252.5,-172"/>
<text xml:space="preserve" text-anchor="middle" x="184.5" y="-158.5" font-family="Helvetica,sans-Serif" font-size="10.00">Logger::isRealTimeEnabled</text>
</a>
</g>
</g>
<!-- Node1&#45;&gt;Node4 -->
<g id="edge3_Node000001_Node000004" class="edge">
<title>Node1&#45;&gt;Node4</title>
<g id="a_edge3_Node000001_Node000004"><a xlink:title=" ">
<path fill="none" stroke="#63b8ff" d="M80.5,-134.48C96.82,-138.85 115.97,-143.96 133.3,-148.59"/>
<polygon fill="#63b8ff" stroke="#63b8ff" points="132.35,-151.96 142.92,-151.16 134.16,-145.2 132.35,-151.96"/>
</a>
</g>
</g>
<!-- Node5 -->
<g id="Node000005" class="node">
<title>Node5</title>
<g id="a_Node000005"><a xlink:href="class_logger.html#a21705d43d3167e0687454df79dedb6d3" target="_top" xlink:title=" ">
<polygon fill="white" stroke="#666666" points="352.5,-134 288.5,-134 288.5,-114 352.5,-114 352.5,-134"/>
<text xml:space="preserve" text-anchor="middle" x="320.5" y="-120.5" font-family="Helvetica,sans-Serif" font-size="10.00">Logger::log</text>
</a>
</g>
</g>
<!-- Node1&#45;&gt;Node5 -->
<g id="edge4_Node000001_Node000005" class="edge">
<title>Node1&#45;&gt;Node5</title>
<g id="a_edge4_Node000001_Node000005"><a xlink:title=" ">
<path fill="none" stroke="#63b8ff" d="M80.82,-124C132.71,-124 223.4,-124 276.8,-124"/>
<polygon fill="#63b8ff" stroke="#63b8ff" points="276.73,-127.5 286.73,-124 276.73,-120.5 276.73,-127.5"/>
</a>
</g>
</g>
<!-- Node6 -->
<g id="Node000006" class="node">
<title>Node6</title>
<g id="a_Node000006"><a xlink:href="class_logger.html#ae3fc9458e28edb18ce6c72033a5a97e4" target="_top" xlink:title=" ">
<polygon fill="white" stroke="#666666" points="218,-96 151,-96 151,-76 218,-76 218,-96"/>
<text xml:space="preserve" text-anchor="middle" x="184.5" y="-82.5" font-family="Helvetica,sans-Serif" font-size="10.00">Logger::logf</text>
</a>
</g>
</g>
<!-- Node1&#45;&gt;Node6 -->
<g id="edge6_Node000001_Node000006" class="edge">
<title>Node1&#45;&gt;Node6</title>
<g id="a_edge6_Node000001_Node000006"><a xlink:title=" ">
<path fill="none" stroke="#63b8ff" d="M80.5,-113.52C98.83,-108.62 120.74,-102.77 139.62,-97.72"/>
<polygon fill="#63b8ff" stroke="#63b8ff" points="140.41,-101.13 149.17,-95.17 138.61,-94.37 140.41,-101.13"/>
</a>
</g>
</g>
<!-- Node7 -->
<g id="Node000007" class="node">
<title>Node7</title>
<g id="a_Node000007"><a xlink:href="class_logger.html#a8e88dd6ab1fba23da493b2d2214f04a8" target="_top" xlink:title=" ">
<polygon fill="white" stroke="#666666" points="246.5,-58 122.5,-58 122.5,-38 246.5,-38 246.5,-58"/>
<text xml:space="preserve" text-anchor="middle" x="184.5" y="-44.5" font-family="Helvetica,sans-Serif" font-size="10.00">Logger::setErrorCallback</text>
</a>
</g>
</g>
<!-- Node1&#45;&gt;Node7 -->
<g id="edge8_Node000001_Node000007" class="edge">
<title>Node1&#45;&gt;Node7</title>
<g id="a_edge8_Node000001_Node000007"><a xlink:title=" ">
<path fill="none" stroke="#63b8ff" d="M52.09,-113.68C65.97,-100.98 91.27,-79.57 116.5,-67 119.96,-65.28 123.6,-63.69 127.32,-62.22"/>
<polygon fill="#63b8ff" stroke="#63b8ff" points="128.28,-65.6 136.52,-58.94 125.92,-59.01 128.28,-65.6"/>
</a>
</g>
</g>
<!-- Node8 -->
<g id="Node000008" class="node">
<title>Node8</title>
<g id="a_Node000008"><a xlink:href="class_logger.html#adf4c4245af48ffa9fff97a3dda1a4192" target="_top" xlink:title=" ">
<polygon fill="white" stroke="#666666" points="245,-20 124,-20 124,0 245,0 245,-20"/>
<text xml:space="preserve" text-anchor="middle" x="184.5" y="-6.5" font-family="Helvetica,sans-Serif" font-size="10.00">Logger::setLineCallback</text>
</a>
</g>
</g>
<!-- Node1&#45;&gt;Node8 -->
<g id="edge9_Node000001_Node000008" class="edge">
<title>Node1&#45;&gt;Node8</title>
<g id="a_edge9_Node000001_Node000008"><a xlink:title=" ">
<path fill="none" stroke="#63b8ff" d="M46.54,-113.67C57.11,-94.09 82.73,-51.55 116.5,-29 118.58,-27.61 120.77,-26.32 123.03,-25.12"/>
<polygon fill="#63b8ff" stroke="#63b8ff" points="124.26,-28.41 131.91,-21.08 121.35,-22.04 124.26,-28.41"/>
</a>
</g>
</g>
<!-- Node5&#45;&gt;Node2 -->
<g id="edge5_Node000005_Node000002" class="edge">
<title>Node5&#45;&gt;Node2</title>
<g id="a_edge5_Node000005_Node000002"><a xlink:title=" ">
<path fill="none" stroke="#63b8ff" d="M345.53,-134.45C365.93,-143.33 395.46,-156.18 418.33,-166.13"/>
<polygon fill="#63b8ff" stroke="#63b8ff" points="416.67,-169.23 427.24,-170.01 419.46,-162.81 416.67,-169.23"/>
</a>
</g>
</g>
<!-- Node6&#45;&gt;Node5 -->
<g id="edge7_Node000006_Node000005" class="edge">
<title>Node6&#45;&gt;Node5</title>
<g id="a_edge7_Node000006_Node000005"><a xlink:title=" ">
<path fill="none" stroke="#63b8ff" d="M218.28,-95.3C236.16,-100.37 258.48,-106.69 277.6,-112.12"/>
<polygon fill="#63b8ff" stroke="#63b8ff" points="276.41,-115.42 286.98,-114.78 278.32,-108.68 276.41,-115.42"/>
</a>
</g>
</g>
</g>
</svg>

<g id="navigator" transform="translate(0 0)" fill="#404254">
  <rect fill="#f2f5e9" fill-opacity="0.5" stroke="#606060" stroke-width=".5" x="0" y="0" width="60" height="60"/>
  <use id="zoomplus" xlink:href="#zoomPlus" x="17" y="9" data-zoom="in"/>
  <use id="zoomminus" xlink:href="#zoomMin" x="42" y="9" data-zoom="out"/>
  <use id="reset" xlink:href="#resetDef" x="30" y="36" data-reset="true"/>
  <use id="arrowup" xlink:href="#arrowUp" x="0" y="0" data-pan-x="0" data-pan-y="-1"/>
  <use id="arrowright" xlink:href="#arrowRight" x="0" y="0" data-pan-x="1" data-pan-y="0"/>
  <use id="arrowdown" xlink:href="#arrowDown" x="0" y="0" data-pan-x="0" data-pan-y="1"/>
  <use id="arrowleft" xlink:href="#arrowLeft" x="0" y="0" data-pan-x="-1" data-pan-y="0"/>
</g>
<svg viewBox="0 0 15 15" width="100%" height="30px" preserveAspectRatio="xMaxYMin meet">
 <g id="arrow_out" transform="scale(0.3 0.3)">
  <a xlink:href="class_logger_aefffc02e0c6c0ab09ec1f77fe35f6439_cgraph_org.svg" target="_base">
   <rect id="button" ry="5" rx="5" y="6" x="6" height="38" width="38"
        fill="#f2f5e9" fill-opacity="0.5" stroke="#606060" stroke-width="1.0"/>
   <path id="arrow"
     d="M 11.500037,31.436501 C 11.940474,20.09759 22.043105,11.32322 32.158766,21.979434 L 37.068811,17.246167 C 37.068811,17.246167 37.088388,32 37.088388,32 L 22.160133,31.978069 C 22.160133,31.978069 26.997745,27.140456 26.997745,27.140456 C 18.528582,18.264221 13.291696,25.230495 11.500037,31.436501 z"
     style="fill:#404040;"/>
  </a>
 </g>
</svg>

<style type='text/css'>
<![CDATA[
[data-mouse-over-selected='false'] { opacity: 0.7; }
[data-mouse-over-selected='true']  { opacity: 1.0; }
]]>
</style>
</svg>
