<?xml version="1.0" encoding="UTF-8" standalone="no"?>
<!DOCTYPE svg PUBLIC "-//W3C//DTD SVG 1.1//EN"
 "http://www.w3.org/Graphics/SVG/1.1/DTD/svg11.dtd">
<!-- Generated by graphviz version 16.0.0 (20260814.1018)
 -->
<!-- Title: AutomaticController::advance Pages: 1 -->
<svg width="479pt" height="53pt"
 viewBox="0.00 0.00 479.00 53.00" xmlns="http://www.w3.org/2000/svg" xmlns:xlink="http://www.w3.org/1999/xlink">
<g id="graph0" class="graph" transform="scale(1 1) rotate(0) translate(4 49)">
<title>AutomaticController::advance</title>
<!-- Node1 -->
<g id="Node000001" class="node">
<title>Node1</title>
<g id="a_Node000001"><a xlink:title=" ">
<polygon fill="#999999" stroke="#666666" points="102.25,-45 0,-45 0,-13 102.25,-13 102.25,-45"/>
<text xml:space="preserve" text-anchor="start" x="8" y="-31.5" font-family="Helvetica,sans-Serif" font-size="10.00">AutomaticController</text>
<text xml:space="preserve" text-anchor="middle" x="51.12" y="-19.5" font-family="Helvetica,sans-Serif" font-size="10.00">::advance</text>
</a>
</g>
</g>
<!-- Node2 -->
<g id="Node000002" class="node">
<title>Node2</title>
<g id="a_Node000002"><a xlink:href="class_logger.html#a21705d43d3167e0687454df79dedb6d3" target="_top" xlink:title=" ">
<polygon fill="white" stroke="#666666" points="305.25,-39 241.25,-39 241.25,-19 305.25,-19 305.25,-39"/>
<text xml:space="preserve" text-anchor="middle" x="273.25" y="-25.5" font-family="Helvetica,sans-Serif" font-size="10.00">Logger::log</text>
</a>
</g>
</g>
<!-- Node1&#45;&gt;Node2 -->
<g id="edge1_Node000001_Node000002" class="edge">
<title>Node1&#45;&gt;Node2</title>
<g id="a_edge1_Node000001_Node000002"><a xlink:title=" ">
<path fill="none" stroke="#63b8ff" d="M102.63,-29C141.11,-29 193.5,-29 229.83,-29"/>
<polygon fill="#63b8ff" stroke="#63b8ff" points="229.5,-32.5 239.5,-29 229.5,-25.5 229.5,-32.5"/>
</a>
</g>
</g>
<!-- Node4 -->
<g id="Node000004" class="node">
<title>Node4</title>
<g id="a_Node000004"><a xlink:href="class_logger.html#ae3fc9458e28edb18ce6c72033a5a97e4" target="_top" xlink:title=" ">
<polygon fill="white" stroke="#666666" points="205.25,-20 138.25,-20 138.25,0 205.25,0 205.25,-20"/>
<text xml:space="preserve" text-anchor="middle" x="171.75" y="-6.5" font-family="Helvetica,sans-Serif" font-size="10.00">Logger::logf</text>
</a>
</g>
</g>
<!-- Node1&#45;&gt;Node4 -->
<g id="edge3_Node000001_Node000004" class="edge">
<title>Node1&#45;&gt;Node4</title>
<g id="a_edge3_Node000001_Node000004"><a xlink:title=" ">
<path fill="none" stroke="#63b8ff" d="M102.43,-20.94C110.49,-19.65 118.78,-18.32 126.68,-17.06"/>
<polygon fill="#63b8ff" stroke="#63b8ff" points="127.1,-20.54 136.42,-15.5 125.99,-13.62 127.1,-20.54"/>
</a>
</g>
</g>
<!-- Node3 -->
<g id="Node000003" class="node">
<title>Node3</title>
<g id="a_Node000003"><a xlink:href="class_logger.html#a8c85a0b2b35eb9f57ca874807a04b911" target="_top" xlink:title="Formatiert den aktuellen Zeitstempel (wie am Anfang jeder Logzeile) nach buffer.">
<polygon fill="white" stroke="#666666" points="471.25,-39 341.25,-39 341.25,-19 471.25,-19 471.25,-39"/>
<text xml:space="preserve" text-anchor="middle" x="406.25" y="-25.5" font-family="Helvetica,sans-Serif" font-size="10.00">Logger::currentTimestamp</text>
</a>
</g>
</g>
<!-- Node2&#45;&gt;Node3 -->
<g id="edge2_Node000002_Node000003" class="edge">
<title>Node2&#45;&gt;Node3</title>
<g id="a_edge2_Node000002_Node000003"><a xlink:title=" ">
<path fill="none" stroke="#63b8ff" d="M305.63,-29C312.97,-29 321.1,-29 329.46,-29"/>
<polygon fill="#63b8ff" stroke="#63b8ff" points="329.43,-32.5 339.43,-29 329.43,-25.5 329.43,-32.5"/>
</a>
</g>
</g>
<!-- Node4&#45;&gt;Node2 -->
<g id="edge4_Node000004_Node000002" class="edge">
<title>Node4&#45;&gt;Node2</title>
<g id="a_edge4_Node000004_Node000002"><a xlink:title=" ">
<path fill="none" stroke="#63b8ff" d="M205.61,-16.27C213.3,-17.74 221.61,-19.33 229.66,-20.87"/>
<polygon fill="#63b8ff" stroke="#63b8ff" points="228.81,-24.27 239.29,-22.71 230.13,-17.39 228.81,-24.27"/>
</a>
</g>
</g>
</g>
</svg>
