<?xml version="1.0" encoding="UTF-8" standalone="no"?>
<!DOCTYPE svg PUBLIC "-//W3C//DTD SVG 1.1//EN"
 "http://www.w3.org/Graphics/SVG/1.1/DTD/svg11.dtd">
<!-- Generated by graphviz version 16.0.0 (20260814.1018)
 -->
<!-- Title: AutomaticController::begin Pages: 1 -->
<svg width="255pt" height="96pt"
 viewBox="0.00 0.00 255.00 96.00" xmlns="http://www.w3.org/2000/svg" xmlns:xlink="http://www.w3.org/1999/xlink">

<svg id="main" version="1.1" xmlns="http://www.w3.org/2000/svg" xmlns:xlink="http://www.w3.org/1999/xlink" xml:space="preserve">

<style type="text/css"><![CDATA[
.node, .edge {opacity: 0.7;}
.node.selected, .edge.selected {opacity: 1;}
.edge:hover path { stroke: red; }
.edge:hover polygon { stroke: red; fill: red; }
]]></style>
<script type="application/ecmascript" xlink:href="svg.min.js"/>
<svg id="graph" class="graph">
<g id="graph0" class="graph" transform="scale(1 1) rotate(0) translate(4 92)">
<title>AutomaticController::begin</title>
<!-- Node1 -->
<g id="Node000001" class="node">
<title>Node1</title>
<g id="a_Node000001"><a xlink:title="Setzt den Zustand zurueck (keine Sequenz aktiv). Fuer den Boot&#45;Grundzustand.">
<polygon fill="#999999" stroke="#666666" points="246.5,-57 144.25,-57 144.25,-25 246.5,-25 246.5,-57"/>
<text xml:space="preserve" text-anchor="start" x="152.25" y="-43.5" font-family="Helvetica,sans-Serif" font-size="10.00">AutomaticController</text>
<text xml:space="preserve" text-anchor="middle" x="195.38" y="-31.5" font-family="Helvetica,sans-Serif" font-size="10.00">::begin</text>
</a>
</g>
</g>
<!-- Node2 -->
<g id="Node000002" class="node">
<title>Node2</title>
<g id="a_Node000002"><a xlink:href="class_automatic_controller.html#a8b21c0d87ae53811c98a06d7083bda22" target="_top" xlink:title=" ">
<polygon fill="white" stroke="#666666" points="108.25,-88 0,-88 0,-56 108.25,-56 108.25,-88"/>
<text xml:space="preserve" text-anchor="start" x="8" y="-74.5" font-family="Helvetica,sans-Serif" font-size="10.00">AutomaticController</text>
<text xml:space="preserve" text-anchor="middle" x="54.12" y="-62.5" font-family="Helvetica,sans-Serif" font-size="10.00">::AutomaticController</text>
</a>
</g>
</g>
<!-- Node1&#45;&gt;Node2 -->
<g id="edge1_Node000001_Node000002" class="edge">
<title>Node1&#45;&gt;Node2</title>
<g id="a_edge1_Node000001_Node000002"><a xlink:title=" ">
<path fill="none" stroke="#63b8ff" d="M133.11,-54.64C124.95,-56.46 116.63,-58.31 108.61,-60.09"/>
<polygon fill="#63b8ff" stroke="#63b8ff" points="133.62,-58.11 142.63,-52.52 132.1,-51.28 133.62,-58.11"/>
</a>
</g>
</g>
<!-- Node3 -->
<g id="Node000003" class="node">
<title>Node3</title>
<g id="a_Node000003"><a xlink:href="main_8cpp.html#a4fc01d736fe50cf5b977f755b675f11d" target="_top" xlink:title=" ">
<polygon fill="white" stroke="#666666" points="74.12,-20 34.12,-20 34.12,0 74.12,0 74.12,-20"/>
<text xml:space="preserve" text-anchor="middle" x="54.12" y="-6.5" font-family="Helvetica,sans-Serif" font-size="10.00">setup</text>
</a>
</g>
</g>
<!-- Node1&#45;&gt;Node3 -->
<g id="edge2_Node000001_Node000003" class="edge">
<title>Node1&#45;&gt;Node3</title>
<g id="a_edge2_Node000001_Node000003"><a xlink:title=" ">
<path fill="none" stroke="#63b8ff" d="M132.88,-27.31C111.79,-22.61 89.69,-17.7 74.47,-14.31"/>
<polygon fill="#63b8ff" stroke="#63b8ff" points="132.1,-30.72 142.63,-29.48 133.62,-23.89 132.1,-30.72"/>
</a>
</g>
</g>
<!-- Node3&#45;&gt;Node3 -->
<g id="edge3_Node000003_Node000003" class="edge">
<title>Node3&#45;&gt;Node3</title>
<g id="a_edge3_Node000003_Node000003"><a xlink:title=" ">
<path fill="none" stroke="#63b8ff" d="M80.59,-27.95C80.15,-33.57 71.32,-38 54.12,-38 27.92,-38 21.16,-27.72 33.85,-18.6"/>
<polygon fill="#63b8ff" stroke="#63b8ff" points="83.67,-26.26 75.23,-19.86 77.84,-30.13 83.67,-26.26"/>
</a>
</g>
</g>
</g>
</svg>
</svg>

<style type='text/css'>
<![CDATA[
[data-mouse-over-selected='false'] { opacity: 0.7; }
[data-mouse-over-selected='true']  { opacity: 1.0; }
]]>
</style>
</svg>
