<?xml version="1.0" encoding="UTF-8" standalone="no"?>
<!DOCTYPE svg PUBLIC "-//W3C//DTD SVG 1.1//EN"
 "http://www.w3.org/Graphics/SVG/1.1/DTD/svg11.dtd">
<!-- Generated by graphviz version 16.0.0 (20260814.1018)
 -->
<!-- Title: I2C::scan Pages: 1 -->
<svg width="156pt" height="84pt"
 viewBox="0.00 0.00 156.00 84.00" xmlns="http://www.w3.org/2000/svg" xmlns:xlink="http://www.w3.org/1999/xlink">

<svg id="main" version="1.1" xmlns="http://www.w3.org/2000/svg" xmlns:xlink="http://www.w3.org/1999/xlink" xml:space="preserve">

<style type="text/css"><![CDATA[
.node, .edge {opacity: 0.7;}
.node.selected, .edge.selected {opacity: 1;}
.edge:hover path { stroke: red; }
.edge:hover polygon { stroke: red; fill: red; }
]]></style>
<script type="application/ecmascript" xlink:href="svg.min.js"/>
<svg id="graph" class="graph">
<g id="graph0" class="graph" transform="scale(1 1) rotate(0) translate(4 80)">
<title>I2C::scan</title>
<!-- Node1 -->
<g id="Node000001" class="node">
<title>Node1</title>
<g id="a_Node000001"><a xlink:title="Durchsucht den I2C&#45;Bus (Adressen 1&#45;126) und prueft gezielt den MCP23017.">
<polygon fill="#999999" stroke="#666666" points="148.25,-48 89.5,-48 89.5,-28 148.25,-28 148.25,-48"/>
<text xml:space="preserve" text-anchor="middle" x="118.88" y="-34.5" font-family="Helvetica,sans-Serif" font-size="10.00">I2C::scan</text>
</a>
</g>
</g>
<!-- Node2 -->
<g id="Node000002" class="node">
<title>Node2</title>
<g id="a_Node000002"><a xlink:href="class_i2_c.html#a06f68c1d827ffd15eea64fda461db4fc" target="_top" xlink:title=" ">
<polygon fill="white" stroke="#666666" points="53.5,-76 0,-76 0,-56 53.5,-56 53.5,-76"/>
<text xml:space="preserve" text-anchor="middle" x="26.75" y="-62.5" font-family="Helvetica,sans-Serif" font-size="10.00">I2C::I2C</text>
</a>
</g>
</g>
<!-- Node1&#45;&gt;Node2 -->
<g id="edge1_Node000001_Node000002" class="edge">
<title>Node1&#45;&gt;Node2</title>
<g id="a_edge1_Node000001_Node000002"><a xlink:title=" ">
<path fill="none" stroke="#63b8ff" d="M78.63,-50.19C70.28,-52.79 61.66,-55.46 53.94,-57.86"/>
<polygon fill="#63b8ff" stroke="#63b8ff" points="79.4,-53.62 87.91,-47.31 77.33,-46.93 79.4,-53.62"/>
</a>
</g>
</g>
<!-- Node3 -->
<g id="Node000003" class="node">
<title>Node3</title>
<g id="a_Node000003"><a xlink:href="main_8cpp.html#a4fc01d736fe50cf5b977f755b675f11d" target="_top" xlink:title=" ">
<polygon fill="white" stroke="#666666" points="46.75,-20 6.75,-20 6.75,0 46.75,0 46.75,-20"/>
<text xml:space="preserve" text-anchor="middle" x="26.75" y="-6.5" font-family="Helvetica,sans-Serif" font-size="10.00">setup</text>
</a>
</g>
</g>
<!-- Node1&#45;&gt;Node3 -->
<g id="edge2_Node000001_Node000003" class="edge">
<title>Node1&#45;&gt;Node3</title>
<g id="a_edge2_Node000001_Node000003"><a xlink:title=" ">
<path fill="none" stroke="#63b8ff" d="M78.64,-25.81C67.67,-22.4 56.22,-18.85 46.97,-15.97"/>
<polygon fill="#63b8ff" stroke="#63b8ff" points="77.33,-29.07 87.91,-28.69 79.4,-22.38 77.33,-29.07"/>
</a>
</g>
</g>
<!-- Node3&#45;&gt;Node3 -->
<g id="edge3_Node000003_Node000003" class="edge">
<title>Node3&#45;&gt;Node3</title>
<g id="a_edge3_Node000003_Node000003"><a xlink:title=" ">
<path fill="none" stroke="#63b8ff" d="M43.03,-31.44C40.94,-35.3 35.51,-38 26.75,-38 10.74,-38 5.86,-28.98 12.11,-20.34"/>
<polygon fill="#63b8ff" stroke="#63b8ff" points="46.54,-31.21 41.61,-21.84 39.61,-32.24 46.54,-31.21"/>
</a>
</g>
</g>
</g>
</svg>
</svg>

<style type='text/css'>
<![CDATA[
[data-mouse-over-selected='false'] { opacity: 0.7; }
[data-mouse-over-selected='true']  { opacity: 1.0; }
]]>
</style>
</svg>
