<?xml version="1.0" encoding="UTF-8" standalone="no"?>
<!DOCTYPE svg PUBLIC "-//W3C//DTD SVG 1.1//EN"
 "http://www.w3.org/Graphics/SVG/1.1/DTD/svg11.dtd">
<!-- Generated by graphviz version 16.0.0 (20260814.1018)
 -->
<!-- Title: WiFiController::isConnected Pages: 1 -->
<svg width="358pt" height="66pt"
 viewBox="0.00 0.00 358.00 66.00" xmlns="http://www.w3.org/2000/svg" xmlns:xlink="http://www.w3.org/1999/xlink">

<svg id="main" version="1.1" xmlns="http://www.w3.org/2000/svg" xmlns:xlink="http://www.w3.org/1999/xlink" xml:space="preserve">

<style type="text/css"><![CDATA[
.node, .edge {opacity: 0.7;}
.node.selected, .edge.selected {opacity: 1;}
.edge:hover path { stroke: red; }
.edge:hover polygon { stroke: red; fill: red; }
]]></style>
<script type="application/ecmascript" xlink:href="svg.min.js"/>
<svg id="graph" class="graph">
<g id="graph0" class="graph" transform="scale(1 1) rotate(0) translate(4 62)">
<title>WiFiController::isConnected</title>
<!-- Node1 -->
<g id="Node000001" class="node">
<title>Node1</title>
<g id="a_Node000001"><a xlink:title="Liefert true, wenn aktuell eine WLAN&#45;Verbindung besteht.">
<polygon fill="#999999" stroke="#666666" points="349.93,-39 210.93,-39 210.93,-19 349.93,-19 349.93,-39"/>
<text xml:space="preserve" text-anchor="middle" x="280.43" y="-25.5" font-family="Helvetica,sans-Serif" font-size="10.00">WiFiController::isConnected</text>
</a>
</g>
</g>
<!-- Node2 -->
<g id="Node000002" class="node">
<title>Node2</title>
<g id="a_Node000002"><a xlink:href="namespace_m_q_t_t.html#a10bbbea49d36b483ac33babc40e6ff4a" target="_top" xlink:title="Muss regelmaessig aus loop() aufgerufen werden (PubSubClient&#45;Loop, Reconnect bei Verbindungsverlust).">
<polygon fill="white" stroke="#666666" points="157.31,-58 90.31,-58 90.31,-38 157.31,-38 157.31,-58"/>
<text xml:space="preserve" text-anchor="middle" x="123.81" y="-44.5" font-family="Helvetica,sans-Serif" font-size="10.00">MQTT::loop</text>
</a>
</g>
</g>
<!-- Node1&#45;&gt;Node2 -->
<g id="edge1_Node000001_Node000002" class="edge">
<title>Node1&#45;&gt;Node2</title>
<g id="a_edge1_Node000001_Node000002"><a xlink:title=" ">
<path fill="none" stroke="#63b8ff" d="M199.46,-38.83C184.73,-40.64 170.13,-42.43 157.8,-43.95"/>
<polygon fill="#63b8ff" stroke="#63b8ff" points="199.71,-42.32 209.21,-37.63 198.86,-35.37 199.71,-42.32"/>
</a>
</g>
</g>
<!-- Node4 -->
<g id="Node000004" class="node">
<title>Node4</title>
<g id="a_Node000004"><a xlink:href="namespace_wi_fi_controller.html#a61f4b17e8199349d61b889ad18ecb82c" target="_top" xlink:title="Muss regelmaessig aus loop() aufgerufen werden (Reconnect bei Verbindungsverlust).">
<polygon fill="white" stroke="#666666" points="174.93,-20 72.68,-20 72.68,0 174.93,0 174.93,-20"/>
<text xml:space="preserve" text-anchor="middle" x="123.81" y="-6.5" font-family="Helvetica,sans-Serif" font-size="10.00">WiFiController::loop</text>
</a>
</g>
</g>
<!-- Node1&#45;&gt;Node4 -->
<g id="edge4_Node000001_Node000004" class="edge">
<title>Node1&#45;&gt;Node4</title>
<g id="a_edge4_Node000001_Node000004"><a xlink:title=" ">
<path fill="none" stroke="#63b8ff" d="M199.47,-19.17C191.23,-18.16 183.02,-17.15 175.23,-16.2"/>
<polygon fill="#63b8ff" stroke="#63b8ff" points="198.86,-22.63 209.21,-20.37 199.71,-15.68 198.86,-22.63"/>
</a>
</g>
</g>
<!-- Node3 -->
<g id="Node000003" class="node">
<title>Node3</title>
<g id="a_Node000003"><a xlink:href="main_8cpp.html#afe461d27b9c48d5921c00d521181f12f" target="_top" xlink:title=" ">
<polygon fill="white" stroke="#666666" points="36.68,-39 2.68,-39 2.68,-19 36.68,-19 36.68,-39"/>
<text xml:space="preserve" text-anchor="middle" x="19.68" y="-25.5" font-family="Helvetica,sans-Serif" font-size="10.00">loop</text>
</a>
</g>
</g>
<!-- Node2&#45;&gt;Node3 -->
<g id="edge2_Node000002_Node000003" class="edge">
<title>Node2&#45;&gt;Node3</title>
<g id="a_edge2_Node000002_Node000003"><a xlink:title=" ">
<path fill="none" stroke="#63b8ff" d="M78.8,-39.81C63.92,-37.04 48.23,-34.13 36.91,-32.02"/>
<polygon fill="#63b8ff" stroke="#63b8ff" points="77.97,-43.22 88.44,-41.61 79.25,-36.34 77.97,-43.22"/>
</a>
</g>
</g>
<!-- Node3&#45;&gt;Node3 -->
<g id="edge3_Node000003_Node000003" class="edge">
<title>Node3&#45;&gt;Node3</title>
<g id="a_edge3_Node000003_Node000003"><a xlink:title=" ">
<path fill="none" stroke="#63b8ff" d="M38.09,-50.44C35.71,-54.3 29.58,-57 19.68,-57 1.58,-57 -3.93,-47.98 3.14,-39.34"/>
<polygon fill="#63b8ff" stroke="#63b8ff" points="41.58,-50.12 36.48,-40.83 34.68,-51.27 41.58,-50.12"/>
</a>
</g>
</g>
<!-- Node4&#45;&gt;Node3 -->
<g id="edge5_Node000004_Node000003" class="edge">
<title>Node4&#45;&gt;Node3</title>
<g id="a_edge5_Node000004_Node000003"><a xlink:title=" ">
<path fill="none" stroke="#63b8ff" d="M61.25,-21.45C52.28,-23.12 43.76,-24.71 36.86,-25.99"/>
<polygon fill="#63b8ff" stroke="#63b8ff" points="61.66,-24.94 70.85,-19.67 60.38,-18.05 61.66,-24.94"/>
</a>
</g>
</g>
</g>
</svg>
</svg>

<style type='text/css'>
<![CDATA[
[data-mouse-over-selected='false'] { opacity: 0.7; }
[data-mouse-over-selected='true']  { opacity: 1.0; }
]]>
</style>
</svg>
